# xmcd
#
# Track frame offsets:
#	150
#	20200
#	40900
#	46888
#	57475
#	83510
#	97775
#	123325
#	136483
#	154188
#	164790
#	177260
#	198505
#	219063
#	238675
#	254300
#	272800
#	285308
#	299163
#	311335
#
# Disc length: 4308 seconds
# Revision: 2
# Processed by: cddbd v1.5.2PL0 Copyright (c) Steve Scherf et al.
# Submitted via: dBpowerAMP V12.0
#
DISCID=2310d214
DTITLE=Norman Blake - Tacoma-Plus One
DYEAR=1976
DGENRE=Country
TTITLE0=Nine Pound Hammer
TTITLE1=Sweet Heaven When I Die
TTITLE2=Introducing Nancy Blake
TTITLE3=Border Widow
TTITLE4=G Medley
TTITLE5=Dry Grass in the High Fields
TTITLE6=John Hardy
TTITLE7=Arkansas Traveler
TTITLE8=Medley
TTITLE9=Harvey's Reel
TTITLE10=Blue Ridge Mountain Blues
TTITLE11=Thebes
TTITLE12=L and N Don't Stop Here Anymore
TTITLE13=Medley
TTITLE14=Poor Ellen Smith
TTITLE15=Uncle Sam
TTITLE16=Ice on the Road
TTITLE17=Rake and the Rambling Blade
TTITLE18=High Dad in the Morning
TTITLE19=Father's Hall
EXTD=
EXTT0=
EXTT1=
EXTT2=
EXTT3=
EXTT4=
EXTT5=
EXTT6=
EXTT7=
EXTT8=
EXTT9=
EXTT10=
EXTT11=
EXTT12=
EXTT13=
EXTT14=
EXTT15=
EXTT16=
EXTT17=
EXTT18=
EXTT19=
PLAYORDER=
